<svg width="1379" height="1363" viewBox="0 0 1379 1363" fill="none" xmlns="http://www.w3.org/2000/svg" xmlns:xlink="http://www.w3.org/1999/xlink" role="img" aria-labelledby="Tenable's interactive marchitecture diagram with links to its suite of products">

    <!-- Text: Attack path analysis -->
    <g class="c-marketecture-diagram__text" data-product="attack-path-analysis">
      <text fill="#00F0FF" xml:space="preserve" style="white-space: pre" font-family="Aeonik Pro" font-size="35" font-weight="500" letter-spacing="0.2px">
      <tspan x="335.434" y="400.8">Attack path
</tspan><tspan x="364.277" y="437.8">analysis</tspan>
    </text>
    </g>
    <!-- Trigger: Attack path analysis -->
    <a href="/products/tenable-one/attack-path-analysis" class="c-marketecture-diagram__trigger" data-product="attack-path-analysis">
      <rect x="285" y="315" width="280" height="180"></rect>
    </a>


    <!-- Text: Asset Inventory -->
    <g class="c-marketecture-diagram__text" data-product="asset-inventory">
      <text fill="#00F0FF" xml:space="preserve" style="white-space: pre" font-family="Aeonik Pro" font-size="35" font-weight="500" letter-spacing="0.2px">
      <tspan x="874.248" y="437.8">Inventory</tspan>
    </text>
    </g>
    <!-- Trigger: Asset Inventory -->
    <g class="c-marketecture-diagram__trigger" data-product="asset-inventory">
      <rect x="815" y="315" width="280" height="180"></rect>
    </g>


    <!-- Text: Exposure Graph -->
    <g class="c-marketecture-diagram__text" data-product="exposure-graph">
      <text fill="#00F0FF" xml:space="preserve" style="white-space: pre" font-family="Aeonik Pro" font-size="26" font-weight="bold" letter-spacing="1.8px"><tspan x="563.644" y="747.88">EXPOSURE GRAPH</tspan></text>
      <text fill="#00F0FF" xml:space="preserve" style="white-space: pre" font-family="Aeonik Pro" font-size="21" font-weight="500" letter-spacing="-0.2px"><tspan x="589.681" y="774.98">Unified Data Platform</tspan></text>
    </g>
    <!-- Trigger: Exposure Graph -->
    <a href="/solutions/exposure-ai#exposure" class="c-marketecture-diagram__trigger" data-product="exposure-graph">
      <rect x="545" y="655" width="290" height="180"></rect>
    </a>


    <!-- Text: Exposure View -->
    <g class="c-marketecture-diagram__text" data-product="exposure-view">
      <text fill="#00F0FF" xml:space="preserve" style="white-space: pre" font-family="Aeonik Pro" font-size="35" font-weight="500" letter-spacing="0.2px">
      <tspan x="614.596" y="346.8">Exposure</tspan><tspan x="650.645" y="383.8">View</tspan>
    </text>
    </g>
    <!-- Trigger: Exposure View -->
    <a href="/products/tenable-one/lumin-exposure-view" class="c-marketecture-diagram__trigger" data-product="exposure-view">
      <rect x="565" y="285" width="250" height="150"></rect>
    </a>

    <!-- Trigger: Tenable vulnerability -->
    <a class="c-marketecture-diagram__trigger" data-product="native-data">
      <rect x="145" y="645" width="400" height="120"></rect>
    </a>
    <!-- Text: Tenable vulnerability -->
    <g class="c-marketecture-diagram__text" data-product="native-data">
      <text fill="white" xml:space="preserve" style="white-space: pre" font-family="Aeonik Pro" font-size="27" letter-spacing="0.154286px">
        <tspan x="202.802" y="696.76">Tenable vulnerability </tspan><tspan x="172.211" y="729.76">intelligence &amp; native data</tspan>
      </text>
    </g>

    <!-- Trigger: Third party data -->
    <a class="c-marketecture-diagram__trigger" data-product="third-party">
      <rect x="835" y="645" width="400" height="120"></rect>
    </a>
    <!-- Text: Third party data -->
    <g class="c-marketecture-diagram__text" data-product="third-party">
      <text fill="white" xml:space="preserve" style="white-space: pre" font-family="Aeonik Pro" font-size="27" letter-spacing="0.154286px">
        <tspan x="946.562" y="696.76">Third-party data </tspan><tspan x="997.313" y="729.76">sources</tspan>
      </text>
    </g>


    <!-- Text: ExposureAI -->
    <g class="c-marketecture-diagram__text" data-product="exposureai">
      <text fill="#00F0FF" xml:space="preserve" style="white-space: pre" font-family="Aeonik Pro" font-size="31" font-weight="500" letter-spacing="0.7px"><tspan x="606.383" y="1321.28">ExposureAI</tspan></text>
      <text fill="#00F0FF" xml:space="preserve" style="white-space: pre" font-family="Aeonik Pro" font-size="20" font-weight="bold" letter-spacing="1.6px"><tspan x="619.155" y="1285.6">POWERED BY</tspan></text>
    </g>
    <!-- Trigger: ExposureAI -->
    <a href="/solutions/exposure-ai" class="c-marketecture-diagram__trigger" data-product="exposureai">
      <rect x="545" y="1225" width="290" height="130"></rect>
    </a>


    <g filter="url(#filter0_d_1_7939)">
      <text fill="#00F0FF" xml:space="preserve" style="white-space: tpre" font-family="Aeonik Pro" font-size="27" font-weight="500" letter-spacing="8.3px"><tspan x="605.298" y="990.76">SENSORS</tspan></text>
    </g>



    <!-- Icon: Vulnerability -->
    <g clip-path="url(#clip0_1_7939)" class="c-marketecture-diagram__icon" data-product="vulnerability">
      <rect x="477.043" y="1035.65" width="159.767" height="156.822" fill="url(#pattern0_1_7939)"></rect>
      <path fill-rule="evenodd" clip-rule="evenodd" d="M535.8 1158.14H539.545L543.21 1151.8L541.337 1148.56H535.8L533.03 1153.35L535.8 1158.14ZM545.03 1141.28L556.979 1148.17L556.622 1148.79L545.293 1142.26L541.906 1148.11L544.932 1153.35L541.75 1158.85H535.386L532.204 1153.35L535.386 1147.84H541.237L545.03 1141.28ZM537.345 1136.85L523.251 1128.72V1119.29H522.536V1129.13L536.988 1137.47L537.345 1136.85ZM591.065 1129.13V1117.77H590.35V1128.72L564.151 1143.83L564.509 1144.45L570.423 1141.04L583.785 1164.15C584.469 1165.34 585.574 1166.18 586.897 1166.53C587.331 1166.65 587.772 1166.7 588.21 1166.7C589.103 1166.7 589.984 1166.47 590.776 1166L590.415 1165.39C589.4 1165.98 588.217 1166.14 587.079 1165.84C585.943 1165.54 584.993 1164.81 584.404 1163.8L571.042 1140.68L577.847 1136.76L591.55 1160.46L592.981 1157.95L580.01 1135.51L591.065 1129.13ZM514.714 1109.37L511.945 1104.58H506.407L504.534 1107.82L508.2 1114.16H511.945L514.714 1109.37ZM531.281 1065.37L534.946 1071.71H538.692L541.461 1066.92L538.692 1062.13H533.154L531.281 1065.37ZM515.284 1109.82L512.358 1114.88H505.994L502.812 1109.37L505.994 1103.87H512.358L515.382 1109.1H522.536V1089.61L542.079 1078.34L538.56 1072.43H532.741L529.559 1066.92L532.741 1061.42H539.105L542.287 1066.92L539.246 1072.18L543.064 1078.6L523.251 1090.03V1109.82H515.284ZM572.521 1067.03L575.29 1071.82H580.828L582.701 1068.58L579.036 1062.24H575.29L572.521 1067.03ZM550.171 1074.5L549.814 1073.88L556.801 1069.85L571.352 1078.25L574.714 1072.26L571.696 1067.03L574.877 1061.53H581.242L584.423 1067.03L581.242 1072.54H575.376L571.622 1079.23L556.801 1070.68L550.171 1074.5ZM609.319 1111.09L605.654 1104.75H601.909L599.139 1109.54L601.909 1114.33H607.446L609.319 1111.09ZM611.041 1109.54L607.859 1115.05H601.495L598.471 1109.82H590.35V1090.03L581.518 1084.93L581.875 1084.31L591.065 1089.61V1109.1H598.569L601.495 1104.04H607.859L611.041 1109.54ZM547.505 1114.33V1132.29L554.507 1136.3V1105.17L548.116 1099.03V1082.11L550.053 1084.23V1099.89L556.646 1106.24V1137.53L556.863 1137.65L564.039 1133.5V1104.26L568.781 1099.34L568.692 1088.1L562.663 1084.6V1093.21L557.622 1098.24L557.116 1097.74L561.948 1092.91V1084.18L556.683 1081.12L557.044 1080.5L580.842 1094.34L580.84 1111.15L573.844 1115.39V1127.85L581.326 1123.54V1114.28H582.041V1123.96L571.516 1130.03V1115.95L580.125 1110.75V1105.52L579.026 1104.76V1094.11L569.411 1088.52L569.499 1099.62L566.161 1103.09V1133.11L556.864 1138.48L531.511 1123.96L531.511 1099.33L533.448 1097.21V1114.91L532.225 1116.19V1123.54L539.404 1127.65L539.308 1117.21L540.023 1117.21L540.123 1128.07L546.79 1131.88V1114.64L539.099 1107.42V1089.73L541.036 1091.85V1108.24L547.505 1114.33Z" fill="#FFB900"></path>
      <text fill="#FFB900" xml:space="preserve" style="white-space: pre" font-family="Radix" font-size="31" letter-spacing="0px"><tspan x="467.073" y="1208.89">Vulnerability</tspan></text>
    </g>
    <!-- Trigger: Vulnerability -->
    <a href="/products/vulnerability-management" class="c-marketecture-diagram__trigger" data-product="vulnerability">
      <rect x="445" y="1045" width="250" height="180"></rect>
    </a>



    <!-- Icon: OT -->
    <g clip-path="url(#clip1_1_7939)" class="c-marketecture-diagram__icon" data-product="ot">
      <rect x="861.617" y="816.649" width="334.994" height="334.994" fill="url(#pattern1_1_7939)"></rect>
      <path fill-rule="evenodd" clip-rule="evenodd" d="M1052.85 1005.06L1061.03 996.878L1060.51 996.357L1052.33 1004.54L1052.85 1005.06Z" fill="#0087F5"></path>
      <path fill-rule="evenodd" clip-rule="evenodd" d="M989.11 990.511C989.536 993.057 990.208 995.567 991.11 997.978L982.676 1004.84L987.524 1013.24L997.678 1009.38C999.312 1011.36 1001.15 1013.2 1003.15 1014.84L999.284 1025L1007.41 1029.69L1007.78 1029.05L1000.2 1024.68L1004.03 1014.6L1003.82 1014.44C1001.71 1012.73 999.782 1010.8 998.081 1008.7L997.913 1008.5L987.849 1012.33L983.629 1005.02L991.989 998.214L991.894 997.965C990.931 995.442 990.224 992.806 989.795 990.13L989.753 989.867" fill="#0087F5"></path>
      <path fill-rule="evenodd" clip-rule="evenodd" d="M1078.81 988.781V979.086L1067.82 977.314L1067.71 978.043L1078.07 979.715V988.152L1067.44 989.866L1067.4 990.13C1066.97 992.815 1066.26 995.467 1065.27 998.014L1065.18 998.25L1073.25 1005.55L1069.34 1012.33L1059.26 1008.49L1059.09 1008.7C1057.39 1010.81 1055.46 1012.74 1053.36 1014.44L1053.16 1014.61L1056.99 1024.68L1049.68 1028.9L1042.87 1020.54L1042.62 1020.63C1040.1 1021.6 1037.46 1022.3 1034.79 1022.73L1034.52 1022.77L1032.76 1033.73L1033.49 1033.84L1035.17 1023.42C1037.71 1022.99 1040.22 1022.32 1042.64 1021.41L1049.5 1029.85L1057.9 1025L1054.03 1014.85C1056.02 1013.21 1057.86 1011.37 1059.5 1009.37L1069.66 1013.24L1074.19 1005.4L1066.05 998.042C1066.97 995.604 1067.66 993.073 1068.09 990.51L1078.81 988.781Z" fill="#0087F5"></path>
      <path fill-rule="evenodd" clip-rule="evenodd" d="M978.682 979.036L978.799 979.765L989.725 978.004L991.967 969.635L983.629 962.846L987.848 955.539L997.663 959.275L997.926 958.585L987.523 954.626L982.676 963.022L991.131 969.906L989.135 977.352L978.682 979.036Z" fill="#0087F5"></path>
      <path fill-rule="evenodd" clip-rule="evenodd" d="M1069.33 955.539L1073.25 962.321L1065.37 969.447L1065.87 969.994L1074.19 962.468L1069.66 954.625L1059.25 958.59L1059.51 959.279L1069.33 955.539Z" fill="#0087F5"></path>
      <path fill-rule="evenodd" clip-rule="evenodd" d="M1003.94 953.013L1000.2 943.19L1007.5 938.971L1014.31 947.329L1014.56 947.233C1017.09 946.26 1019.73 945.55 1022.39 945.125L1022.66 945.083L1024.37 934.451H1032.81L1034.52 945.094L1034.79 945.137C1037.46 945.565 1040.1 946.271 1042.62 947.235L1042.87 947.331L1049.68 938.971L1056.99 943.19L1053.25 953.005L1053.94 953.268L1057.9 942.865L1049.5 938.018L1042.64 946.452C1040.22 945.549 1037.71 944.876 1035.17 944.451L1033.44 933.713H1023.74L1022.01 944.439C1019.48 944.862 1016.97 945.538 1014.54 946.449L1007.68 938.018L999.283 942.865L1003.25 953.275L1003.94 953.013Z" fill="#0087F5"></path>
      <path fill-rule="evenodd" clip-rule="evenodd" d="M1044.87 1001.36V1009.2H1045.61V1001.66L1058.98 988.296V965.498H1058.25V987.99L1044.87 1001.36Z" fill="#0087F5"></path>
      <path fill-rule="evenodd" clip-rule="evenodd" d="M1049.18 976.525L1050.66 974.578V958.445H1048.48L1048.45 985.463L1035.91 998.097V1015.27L1037.91 1013.45V997.225L1049.18 985.766V976.525Z" fill="#0087F5"></path>
      <path fill-rule="evenodd" clip-rule="evenodd" d="M1020.55 953.86H1019.81V975.217L1010.67 984.359V1014.06H1011.41V984.664L1020.55 975.522V953.86Z" fill="#0087F5"></path>
      <path fill-rule="evenodd" clip-rule="evenodd" d="M1038.37 984.413L1040.55 982.281V956.887H1037.72V984.008L1028.52 992.945V1018.45H1029.26V993.257L1038.37 984.405V984.413Z" fill="#0087F5"></path>
      <path fill-rule="evenodd" clip-rule="evenodd" d="M1022.4 1022.74C1019.73 1022.32 1017.1 1021.61 1014.56 1020.63L1014.29 1021.32C1016.8 1022.28 1019.39 1022.99 1022.02 1023.43L1023.7 1033.84L1024.42 1033.73L1022.66 1022.78L1022.4 1022.74Z" fill="#0087F5"></path>
      <path fill-rule="evenodd" clip-rule="evenodd" d="M995.1 989.565H995.837V978.105H995.1V989.565Z" fill="#0087F5"></path>
      <path fill-rule="evenodd" clip-rule="evenodd" d="M1002.47 976.151L1002.46 1000.05H1003.2V979.693L1013.02 969.555L1013.04 957.889H1012.3V966.099L1002.47 976.151Z" fill="#0087F5"></path>
      <path fill-rule="evenodd" clip-rule="evenodd" d="M1017.69 990.741L1017.74 1005.12L1020.22 1007.14V989.382L1029.26 980.829V951.394H1028.52V980.512L1017.69 990.741Z" fill="#0087F5"></path>
      <text fill="#0087F5" xml:space="preserve" style="white-space: pre" font-family="Radix" font-size="31" letter-spacing="0px"><tspan x="1009.11" y="1077.89">OT</tspan></text>
    </g>
    <g clip-path="url(#clip1_1_7939)" class="c-marketecture-diagram__icon" data-product="ot">
      <rect x="861.617" y="816.649" width="334.994" height="334.994" fill="url(#pattern1_1_7939)"></rect>
      <path fill-rule="evenodd" clip-rule="evenodd" d="M1052.85 1005.06L1061.03 996.878L1060.51 996.357L1052.33 1004.54L1052.85 1005.06Z" fill="#0087F5"></path>
      <path fill-rule="evenodd" clip-rule="evenodd" d="M989.11 990.511C989.536 993.057 990.208 995.567 991.11 997.978L982.676 1004.84L987.524 1013.24L997.678 1009.38C999.312 1011.36 1001.15 1013.2 1003.15 1014.84L999.284 1025L1007.41 1029.69L1007.78 1029.05L1000.2 1024.68L1004.03 1014.6L1003.82 1014.44C1001.71 1012.73 999.782 1010.8 998.081 1008.7L997.913 1008.5L987.849 1012.33L983.629 1005.02L991.989 998.214L991.894 997.965C990.931 995.442 990.224 992.806 989.795 990.13L989.753 989.867" fill="#0087F5"></path>
      <path fill-rule="evenodd" clip-rule="evenodd" d="M1078.81 988.781V979.086L1067.82 977.314L1067.71 978.043L1078.07 979.715V988.152L1067.44 989.866L1067.4 990.13C1066.97 992.815 1066.26 995.467 1065.27 998.014L1065.18 998.25L1073.25 1005.55L1069.34 1012.33L1059.26 1008.49L1059.09 1008.7C1057.39 1010.81 1055.46 1012.74 1053.36 1014.44L1053.16 1014.61L1056.99 1024.68L1049.68 1028.9L1042.87 1020.54L1042.62 1020.63C1040.1 1021.6 1037.46 1022.3 1034.79 1022.73L1034.52 1022.77L1032.76 1033.73L1033.49 1033.84L1035.17 1023.42C1037.71 1022.99 1040.22 1022.32 1042.64 1021.41L1049.5 1029.85L1057.9 1025L1054.03 1014.85C1056.02 1013.21 1057.86 1011.37 1059.5 1009.37L1069.66 1013.24L1074.19 1005.4L1066.05 998.042C1066.97 995.604 1067.66 993.073 1068.09 990.51L1078.81 988.781Z" fill="#0087F5"></path>
      <path fill-rule="evenodd" clip-rule="evenodd" d="M978.682 979.036L978.799 979.765L989.725 978.004L991.967 969.635L983.629 962.846L987.848 955.539L997.663 959.275L997.926 958.585L987.523 954.626L982.676 963.022L991.131 969.906L989.135 977.352L978.682 979.036Z" fill="#0087F5"></path>
      <path fill-rule="evenodd" clip-rule="evenodd" d="M1069.33 955.539L1073.25 962.321L1065.37 969.447L1065.87 969.994L1074.19 962.468L1069.66 954.625L1059.25 958.59L1059.51 959.279L1069.33 955.539Z" fill="#0087F5"></path>
      <path fill-rule="evenodd" clip-rule="evenodd" d="M1003.94 953.013L1000.2 943.19L1007.5 938.971L1014.31 947.329L1014.56 947.233C1017.09 946.26 1019.73 945.55 1022.39 945.125L1022.66 945.083L1024.37 934.451H1032.81L1034.52 945.094L1034.79 945.137C1037.46 945.565 1040.1 946.271 1042.62 947.235L1042.87 947.331L1049.68 938.971L1056.99 943.19L1053.25 953.005L1053.94 953.268L1057.9 942.865L1049.5 938.018L1042.64 946.452C1040.22 945.549 1037.71 944.876 1035.17 944.451L1033.44 933.713H1023.74L1022.01 944.439C1019.48 944.862 1016.97 945.538 1014.54 946.449L1007.68 938.018L999.283 942.865L1003.25 953.275L1003.94 953.013Z" fill="#0087F5"></path>
      <path fill-rule="evenodd" clip-rule="evenodd" d="M1044.87 1001.36V1009.2H1045.61V1001.66L1058.98 988.296V965.498H1058.25V987.99L1044.87 1001.36Z" fill="#0087F5"></path>
      <path fill-rule="evenodd" clip-rule="evenodd" d="M1049.18 976.525L1050.66 974.578V958.445H1048.48L1048.45 985.463L1035.91 998.097V1015.27L1037.91 1013.45V997.225L1049.18 985.766V976.525Z" fill="#0087F5"></path>
      <path fill-rule="evenodd" clip-rule="evenodd" d="M1020.55 953.86H1019.81V975.217L1010.67 984.359V1014.06H1011.41V984.664L1020.55 975.522V953.86Z" fill="#0087F5"></path>
      <path fill-rule="evenodd" clip-rule="evenodd" d="M1038.37 984.413L1040.55 982.281V956.887H1037.72V984.008L1028.52 992.945V1018.45H1029.26V993.257L1038.37 984.405V984.413Z" fill="#0087F5"></path>
      <path fill-rule="evenodd" clip-rule="evenodd" d="M1022.4 1022.74C1019.73 1022.32 1017.1 1021.61 1014.56 1020.63L1014.29 1021.32C1016.8 1022.28 1019.39 1022.99 1022.02 1023.43L1023.7 1033.84L1024.42 1033.73L1022.66 1022.78L1022.4 1022.74Z" fill="#0087F5"></path>
      <path fill-rule="evenodd" clip-rule="evenodd" d="M995.1 989.565H995.837V978.105H995.1V989.565Z" fill="#0087F5"></path>
      <path fill-rule="evenodd" clip-rule="evenodd" d="M1002.47 976.151L1002.46 1000.05H1003.2V979.693L1013.02 969.555L1013.04 957.889H1012.3V966.099L1002.47 976.151Z" fill="#0087F5"></path>
      <path fill-rule="evenodd" clip-rule="evenodd" d="M1017.69 990.741L1017.74 1005.12L1020.22 1007.14V989.382L1029.26 980.829V951.394H1028.52V980.512L1017.69 990.741Z" fill="#0087F5"></path>
      <text fill="#0087F5" xml:space="preserve" style="white-space: pre" font-family="Radix" font-size="31" letter-spacing="0px"><tspan x="1009.11" y="1077.89">OT</tspan></text>
    </g>
    <g clip-path="url(#clip1_1_7939)" class="c-marketecture-diagram__icon" data-product="ot">
      <rect x="861.617" y="816.649" width="334.994" height="334.994" fill="url(#pattern1_1_7939)"></rect>
      <path fill-rule="evenodd" clip-rule="evenodd" d="M1052.85 1005.06L1061.03 996.878L1060.51 996.357L1052.33 1004.54L1052.85 1005.06Z" fill="#0087F5"></path>
      <path fill-rule="evenodd" clip-rule="evenodd" d="M989.11 990.511C989.536 993.057 990.208 995.567 991.11 997.978L982.676 1004.84L987.524 1013.24L997.678 1009.38C999.312 1011.36 1001.15 1013.2 1003.15 1014.84L999.284 1025L1007.41 1029.69L1007.78 1029.05L1000.2 1024.68L1004.03 1014.6L1003.82 1014.44C1001.71 1012.73 999.782 1010.8 998.081 1008.7L997.913 1008.5L987.849 1012.33L983.629 1005.02L991.989 998.214L991.894 997.965C990.931 995.442 990.224 992.806 989.795 990.13L989.753 989.867" fill="#0087F5"></path>
      <path fill-rule="evenodd" clip-rule="evenodd" d="M1078.81 988.781V979.086L1067.82 977.314L1067.71 978.043L1078.07 979.715V988.152L1067.44 989.866L1067.4 990.13C1066.97 992.815 1066.26 995.467 1065.27 998.014L1065.18 998.25L1073.25 1005.55L1069.34 1012.33L1059.26 1008.49L1059.09 1008.7C1057.39 1010.81 1055.46 1012.74 1053.36 1014.44L1053.16 1014.61L1056.99 1024.68L1049.68 1028.9L1042.87 1020.54L1042.62 1020.63C1040.1 1021.6 1037.46 1022.3 1034.79 1022.73L1034.52 1022.77L1032.76 1033.73L1033.49 1033.84L1035.17 1023.42C1037.71 1022.99 1040.22 1022.32 1042.64 1021.41L1049.5 1029.85L1057.9 1025L1054.03 1014.85C1056.02 1013.21 1057.86 1011.37 1059.5 1009.37L1069.66 1013.24L1074.19 1005.4L1066.05 998.042C1066.97 995.604 1067.66 993.073 1068.09 990.51L1078.81 988.781Z" fill="#0087F5"></path>
      <path fill-rule="evenodd" clip-rule="evenodd" d="M978.682 979.036L978.799 979.765L989.725 978.004L991.967 969.635L983.629 962.846L987.848 955.539L997.663 959.275L997.926 958.585L987.523 954.626L982.676 963.022L991.131 969.906L989.135 977.352L978.682 979.036Z" fill="#0087F5"></path>
      <path fill-rule="evenodd" clip-rule="evenodd" d="M1069.33 955.539L1073.25 962.321L1065.37 969.447L1065.87 969.994L1074.19 962.468L1069.66 954.625L1059.25 958.59L1059.51 959.279L1069.33 955.539Z" fill="#0087F5"></path>
      <path fill-rule="evenodd" clip-rule="evenodd" d="M1003.94 953.013L1000.2 943.19L1007.5 938.971L1014.31 947.329L1014.56 947.233C1017.09 946.26 1019.73 945.55 1022.39 945.125L1022.66 945.083L1024.37 934.451H1032.81L1034.52 945.094L1034.79 945.137C1037.46 945.565 1040.1 946.271 1042.62 947.235L1042.87 947.331L1049.68 938.971L1056.99 943.19L1053.25 953.005L1053.94 953.268L1057.9 942.865L1049.5 938.018L1042.64 946.452C1040.22 945.549 1037.71 944.876 1035.17 944.451L1033.44 933.713H1023.74L1022.01 944.439C1019.48 944.862 1016.97 945.538 1014.54 946.449L1007.68 938.018L999.283 942.865L1003.25 953.275L1003.94 953.013Z" fill="#0087F5"></path>
      <path fill-rule="evenodd" clip-rule="evenodd" d="M1044.87 1001.36V1009.2H1045.61V1001.66L1058.98 988.296V965.498H1058.25V987.99L1044.87 1001.36Z" fill="#0087F5"></path>
      <path fill-rule="evenodd" clip-rule="evenodd" d="M1049.18 976.525L1050.66 974.578V958.445H1048.48L1048.45 985.463L1035.91 998.097V1015.27L1037.91 1013.45V997.225L1049.18 985.766V976.525Z" fill="#0087F5"></path>
      <path fill-rule="evenodd" clip-rule="evenodd" d="M1020.55 953.86H1019.81V975.217L1010.67 984.359V1014.06H1011.41V984.664L1020.55 975.522V953.86Z" fill="#0087F5"></path>
      <path fill-rule="evenodd" clip-rule="evenodd" d="M1038.37 984.413L1040.55 982.281V956.887H1037.72V984.008L1028.52 992.945V1018.45H1029.26V993.257L1038.37 984.405V984.413Z" fill="#0087F5"></path>
      <path fill-rule="evenodd" clip-rule="evenodd" d="M1022.4 1022.74C1019.73 1022.32 1017.1 1021.61 1014.56 1020.63L1014.29 1021.32C1016.8 1022.28 1019.39 1022.99 1022.02 1023.43L1023.7 1033.84L1024.42 1033.73L1022.66 1022.78L1022.4 1022.74Z" fill="#0087F5"></path>
      <path fill-rule="evenodd" clip-rule="evenodd" d="M995.1 989.565H995.837V978.105H995.1V989.565Z" fill="#0087F5"></path>
      <path fill-rule="evenodd" clip-rule="evenodd" d="M1002.47 976.151L1002.46 1000.05H1003.2V979.693L1013.02 969.555L1013.04 957.889H1012.3V966.099L1002.47 976.151Z" fill="#0087F5"></path>
      <path fill-rule="evenodd" clip-rule="evenodd" d="M1017.69 990.741L1017.74 1005.12L1020.22 1007.14V989.382L1029.26 980.829V951.394H1028.52V980.512L1017.69 990.741Z" fill="#0087F5"></path>
      <text fill="#0087F5" xml:space="preserve" style="white-space: pre" font-family="Radix" font-size="31" letter-spacing="0px"><tspan x="1009.11" y="1077.89">OT</tspan></text>
    </g>
    <!-- Trigger: OT -->
    <a href="/products/ot-security" class="c-marketecture-diagram__trigger" data-product="ot">
      <rect x="935" y="910" width="200" height="210"></rect>
    </a>



    <!-- Icon: Identity -->
    <g clip-path="url(#clip2_1_7939)" class="c-marketecture-diagram__icon" data-product="identity">
      <rect x="662.879" y="949.611" width="314.379" height="332.786" fill="url(#pattern2_1_7939)"></rect>
      <path fill-rule="evenodd" clip-rule="evenodd" d="M799.821 1109.44L791.508 1117.46V1132.04L781.046 1113.68V1109.94H786.897L795.71 1101.11V1096.6L799.821 1100.71V1109.44ZM800.557 1100.4L795.71 1095.56V1095.54H795.69L789.531 1089.39V1079.56H788.795V1089.39L784.889 1093.31L785.41 1093.83L789.164 1090.07L794.974 1095.87V1100.8L786.591 1109.2H781.046V1092.68H780.311V1113.88L791.508 1133.52L791.423 1164.96L796.561 1159.83V1150.58L793.819 1147.84V1135.99L792.244 1133.28V1117.77L799.97 1110.32V1129.3L802.146 1129.35V1102L800.557 1100.41V1100.4Z" fill="#26FF93"></path>
      <path fill-rule="evenodd" clip-rule="evenodd" d="M847.416 1145L839.72 1144.97V1139.31L831.876 1131.45V1122.79L837.372 1117.28L838.408 1118.32V1126.01L851.914 1139.55L847.416 1145ZM820.67 1103.11L828.571 1095.19V1076.91L834.744 1070.72L844.915 1077.22L838.993 1083.16V1083.14L836.817 1085.36V1101.34L825.161 1113.02V1107.62L820.67 1103.11ZM819.162 1067.78H830.151L834.108 1070.31L827.836 1076.6V1094.89L820.149 1102.59L819.162 1101.6V1067.78ZM808.707 1078.55V1067.78H816.574V1086.43L808.707 1078.55ZM817.48 1111.21V1129.97L809.828 1137.64L809.83 1103.54L817.48 1111.21ZM852.756 1121.61L859.826 1117.24L852.329 1105L851.701 1105.39L858.814 1117L852.02 1121.19V1125.95L852.279 1138.87L839.145 1125.71V1118.02L830.183 1109.03L839.292 1099.9V1083.9L845.477 1077.7L852.255 1096.52L849.761 1101.52H844.406L840.785 1105.15V1110.24H841.521V1105.46L844.712 1102.26H850.216L853.055 1096.57L846.026 1077.06L830.457 1067.1L830.367 1067.04H801.043L795.808 1072.43L795.805 1083.14L795.805 1083.29L809.093 1096.51V1113.77L807.653 1115.38V1145.4L809.828 1145.44V1138.69L818.216 1130.28V1110.91L809.83 1102.5V1096.2L796.542 1082.99L796.544 1072.73L801.353 1067.78H807.971V1078.85L816.574 1087.48V1090.77L818.426 1092.79V1101.91L824.425 1107.92V1136.42H825.161V1114.07L829.662 1109.56L836.851 1116.76L831.14 1122.49V1131.75L838.984 1139.62V1144.97L832.824 1144.95V1159.09H833.56V1145.69L847.761 1145.74L853.026 1139.36L852.756 1125.94V1121.61Z" fill="#26FF93"></path>
      <text fill="#26FF93" xml:space="preserve" style="white-space: pre" font-family="Radix" font-size="31" letter-spacing="0px"><tspan x="760.343" y="1204.89">Identity</tspan></text>
    </g>
    <!-- Trigger: Identity -->
    <a href="/products/identity-exposure" class="c-marketecture-diagram__trigger" data-product="identity">
      <rect x="695" y="1045" width="240" height="180"></rect>
    </a>


    <!-- Icon: Cloud -->
    <g clip-path="url(#clip3_1_7939)" class="c-marketecture-diagram__icon" data-product="cloud">
      <text fill="#FF5200" xml:space="preserve" style="white-space: pre" font-family="Radix" font-size="31" letter-spacing="0px"><tspan x="302.783" y="1077.89">Cloud</tspan></text>
      <rect x="166.721" y="834.344" width="360.763" height="315.484" fill="url(#pattern3_1_7939)"></rect>
      <path fill-rule="evenodd" clip-rule="evenodd" d="M301.822 1017.88L291.885 1007.9V998.896H291.146V1008.21L301.3 1018.41L301.822 1017.88Z" fill="#FF5200"></path>
      <path fill-rule="evenodd" clip-rule="evenodd" d="M309.186 1002.06L309.713 1002.58L317.635 994.753V990.463L317.652 990.473V971.287L315.64 972.49V989.242L316.89 990.007V994.448L309.186 1002.06Z" fill="#FF5200"></path>
      <path fill-rule="evenodd" clip-rule="evenodd" d="M401.402 1022.92V1013.8L409.295 1005.9C409.303 1006.15 409.314 1006.41 409.314 1006.67C409.314 1014.44 405.717 1019.72 401.402 1022.92V1022.92ZM373.519 1000.3L362.196 1011.65V1026.8H358.063V1002.86L364.454 996.458V976.534L367.874 973.108C369.953 972.998 371.833 973.16 373.519 973.515V1000.3ZM347.971 1011.45L348.079 1011.34V975.414L338.217 965.533V952.16C343.832 952.258 348.992 953.954 353.351 956.43H353.064V987.797L357.326 992.067V1026.8H350.998V1016.27H350.261V1026.8H332.65L347.971 1011.45ZM367.068 972.796L367.074 972.865L363.718 976.228V996.153L358.063 1001.82V991.761L353.801 987.492V975.466L355.424 974.482V957.703C362.246 962.224 366.675 968.531 367.068 972.796V972.796ZM323.417 959.617L315.78 967.269H311.276C312.494 965.241 313.983 963.24 315.777 961.377C317.643 959.439 320.175 957.327 323.417 955.609V959.617ZM391.582 986.151L391.173 986.105V992.616L395.207 996.658L395.729 996.136L391.91 992.31V986.935C397.125 987.648 405.741 991.317 408.46 1000.51H391.268L381.804 991.029V977.523C382.873 978.414 383.716 979.31 384.347 980.074L384.915 979.603C382.489 976.662 377.057 971.847 367.762 972.371C366.636 963.883 353.04 951.408 337.686 951.408C337.577 951.408 337.466 951.409 337.357 951.41C326.485 951.537 319.332 956.621 315.246 960.864C309.051 967.297 306.318 975.359 306.307 980.674C302.038 980.582 297.237 982.38 292.47 985.898L292.907 986.493C297.681 982.97 302.433 981.223 306.662 981.426L307.057 981.446L307.048 981.048C306.964 977.568 308.153 972.752 310.841 968.008H316.086L324.154 959.923V955.224C325.316 954.651 326.573 954.137 327.912 953.695V994.689L316.467 1006.16V1018.35L313.045 1021.78L313.566 1022.31L317.204 1018.66V1006.46L330.163 993.458V967.222L328.649 965.465V953.457C331.23 952.679 334.126 952.187 337.366 952.149C337.404 952.148 337.442 952.149 337.48 952.148V965.839L347.342 975.72V1011.04L335.782 1022.62V1011.83L342.979 1004.62L342.458 1004.1L335.045 1011.52V1023.36L331.608 1026.8L325.311 1026.78V1010.98L339.803 996.245V981.037L337.625 980.994L337.602 997.616L324.574 1010.67V1026.78C324.574 1026.78 307.853 1026.68 307.778 1026.68V1011.89L300.838 1004.94V995.727L306.697 989.857L306.176 989.335L300.102 995.421V1005.24L307.041 1012.2V1026.67C302.654 1026.5 296.185 1024.31 291.346 1019.61C287.122 1015.51 284.889 1010.15 284.889 1004.11C284.889 1000.95 285.557 997.757 286.873 994.628L286.194 994.34C284.839 997.561 284.152 1000.85 284.152 1004.11C284.152 1010.36 286.462 1015.9 290.833 1020.14C295.824 1024.99 302.501 1027.23 307.041 1027.41V1027.41H307.107C307.421 1027.42 307.725 1027.43 308.016 1027.42L317.276 1027.47L321.011 1029.65H332.167L334.911 1032.4H344.149L348.979 1027.54H362.933V1011.95L374.256 1000.61V973.684C377.076 974.391 379.327 975.626 381.068 976.939V991.335L390.962 1001.25H408.662C408.958 1002.42 409.161 1003.68 409.252 1005.02L400.756 1013.54V1023.38C397.484 1025.62 393.895 1026.7 391.179 1026.79V1010.98L396.307 1005.84L395.785 1005.32L390.443 1010.67V1026.8H376.934V1022.93L384.483 1015.37V1001.67H384.471V999.831H382.48V1010.16L383.746 1010.95V1015.06L376.197 1022.62V1026.8H370.968V1018.78L376.827 1012.91L376.305 1012.39L370.232 1018.48V1027.54H390.811C397.52 1027.54 410.051 1021.42 410.051 1006.67C410.051 992.058 397.97 986.858 391.582 986.151V986.151Z" fill="#FF5200"></path>
    </g>
    <!-- Trigger: Cloud -->
    <a href="/cloud-security" class="c-marketecture-diagram__trigger" data-product="cloud">
      <rect x="250" y="927" width="195" height="200"></rect>
    </a>




    <rect x="508.914" width="361.173" height="353" fill="url(#pattern4_1_7939)"></rect>

    <!-- Icon: t1 -->
    <g class="c-marketecture-diagram__icon" data-product="t1">
      <path fill-rule="evenodd" clip-rule="evenodd" d="M787.305 201.343L747.483 245.983L782.349 179.739C783.399 177.749 783.985 175.582 784.143 173.396L789.668 189.811C791.007 193.791 790.105 198.209 787.305 201.343V201.343ZM727.078 268.852C724.344 271.921 720.132 273.343 716.095 272.553L660.658 261.737L732.222 258.11C734.202 258.008 736.109 257.534 737.876 256.752L727.078 268.852ZM618.445 247.462L599.734 191.903L639.5 254.641C640.356 255.99 641.407 257.189 642.588 258.203L627.299 255.218C623.179 254.418 619.794 251.442 618.445 247.462V247.462ZM592.359 151.449L632.191 106.818L597.325 173.062C596.274 175.052 595.688 177.219 595.53 179.404L590.006 162.99C588.657 159 589.569 154.583 592.359 151.449V151.449ZM652.595 83.9491C654.836 81.4383 658.054 80.0339 661.355 80.0339C662.09 80.0339 662.834 80.1082 663.578 80.2476L719.015 91.0638L647.452 94.6907C645.471 94.793 643.565 95.2673 641.798 96.0485L652.595 83.9491ZM760.01 141.135L776.424 167.035C778.294 169.983 778.442 173.741 776.815 176.828L760.242 208.309V143.664C760.242 142.809 760.159 141.963 760.01 141.135V141.135ZM619.663 211.657L603.249 185.756C601.38 182.808 601.231 179.051 602.858 175.963L619.422 144.483V209.127C619.422 209.992 619.505 210.829 619.663 211.657V211.657ZM753.993 209.136C753.993 211.852 752.533 214.391 750.18 215.758L693.664 248.466C691.301 249.833 688.362 249.833 686 248.466L629.493 215.749C627.141 214.382 625.681 211.852 625.681 209.127V143.655C625.681 140.94 627.141 138.4 629.493 137.034L686.01 104.325C687.191 103.637 688.511 103.302 689.841 103.302C691.162 103.302 692.492 103.647 693.673 104.325L750.18 137.043C752.533 138.4 753.993 140.94 753.993 143.664V209.136ZM734.881 101.498L754.467 132.393C754.095 132.123 753.714 131.872 753.314 131.64L696.798 98.9314C696.537 98.7828 696.268 98.6339 695.998 98.5036L726.121 96.9783C729.627 96.7737 732.993 98.5222 734.881 101.498V101.498ZM647.759 100.94L682.42 99.1825L626.359 131.64C626.276 131.686 626.192 131.742 626.108 131.798L639.603 106.157C641.202 103.107 644.327 101.117 647.759 100.94V100.94ZM644.792 251.302L625.206 220.408C625.578 220.678 625.959 220.929 626.359 221.161L682.876 253.879C683.136 254.027 683.406 254.176 683.675 254.306L653.553 255.831C650.028 255.999 646.671 254.269 644.792 251.302V251.302ZM731.905 251.851L697.244 253.609L753.314 221.152C753.398 221.105 753.481 221.05 753.565 220.994L740.071 246.634C738.471 249.684 735.337 251.684 731.905 251.851V251.851ZM761.219 105.33L779.93 160.888L740.164 98.1502C739.308 96.7923 738.257 95.6019 737.076 94.5884L752.375 97.5735C756.485 98.3733 759.88 101.349 761.219 105.33V105.33ZM795.592 187.811L767.143 103.33C765.087 97.2295 759.88 92.6634 753.556 91.4355L664.759 74.1096C658.565 72.9007 652.111 75.0769 647.917 79.7827L587.69 147.282C583.403 152.09 582.017 158.87 584.072 164.971L612.521 249.452C614.576 255.562 619.784 260.119 626.108 261.347L714.905 278.672C716.039 278.896 717.174 278.998 718.308 278.998C723.377 278.998 728.315 276.84 731.747 272.999L791.974 205.5C796.261 200.701 797.647 193.922 795.592 187.811V187.811Z" fill="#00F0FF"></path>
      <path fill-rule="evenodd" clip-rule="evenodd" d="M671.177 156.345H656.256V149.771H692.875V156.345H673.983V157.919C676.31 157.919 678.159 159.289 678.159 162.371V197.706H671.177V156.345Z" fill="#00F0FF"></path>
      <path fill-rule="evenodd" clip-rule="evenodd" d="M710.517 161.206H708.942L701.55 167.643H699.223V161.823L711.201 151.14H717.225V197.706H710.517V161.206Z" fill="#00F0FF"></path>
    </g>
    <!-- Trigger: t1 -->
    <a href="/products/tenable-one" class="c-marketecture-diagram__trigger" data-product="t1">
      <rect x="585" y="65" width="210" height="220"></rect>
    </a>

    <defs>
      <filter id="filter0_d_1_7939" x="599.27" y="964.938" width="182.453" height="33.2241" filterUnits="userSpaceOnUse" color-interpolation-filters="sRGB">
        <feFlood flood-opacity="0" result="BackgroundImageFix"></feFlood>
        <feColorMatrix in="SourceAlpha" type="matrix" values="0 0 0 0 0 0 0 0 0 0 0 0 0 0 0 0 0 0 127 0" result="hardAlpha"></feColorMatrix>
        <feOffset></feOffset>
        <feGaussianBlur stdDeviation="3.5"></feGaussianBlur>
        <feColorMatrix type="matrix" values="0 0 0 0 0.0156863 0 0 0 0 0.117647 0 0 0 0 0.258824 0 0 0 1 0"></feColorMatrix>
        <feBlend mode="normal" in2="BackgroundImageFix" result="effect1_dropShadow_1_7939"></feBlend>
        <feBlend mode="normal" in="SourceGraphic" in2="effect1_dropShadow_1_7939" result="shape"></feBlend>
      </filter>
      <pattern id="pattern0_1_7939" patternContentUnits="objectBoundingBox" width="1" height="1">
        <use xlink:href="#image0_1_7939" transform="scale(0.000822368 0.000838223)"></use>
      </pattern>
      <pattern id="pattern1_1_7939" patternContentUnits="objectBoundingBox" width="1" height="1">
        <use xlink:href="#image1_1_7939" transform="scale(0.000336361)"></use>
      </pattern>
      <pattern id="pattern2_1_7939" patternContentUnits="objectBoundingBox" width="1" height="1">
        <use xlink:href="#image2_1_7939" transform="scale(0.000358166 0.000338639)"></use>
      </pattern>
      <pattern id="pattern3_1_7939" patternContentUnits="objectBoundingBox" width="1" height="1">
        <use xlink:href="#image3_1_7939" transform="scale(0.000312305 0.000356888)"></use>
      </pattern>
      <pattern id="pattern4_1_7939" patternContentUnits="objectBoundingBox" width="1" height="1">
        <use xlink:href="#image4_1_7939" transform="scale(0.000392003 0.000400962)"></use>
      </pattern>
      <clipPath id="clip0_1_7939">
        <rect width="205" height="194" fill="white" transform="translate(455 1022)"></rect>
      </clipPath>
      <clipPath id="clip1_1_7939">
        <rect width="184.063" height="193" fill="white" transform="translate(937 892)"></rect>
      </clipPath>
      <clipPath id="clip2_1_7939">
        <rect width="205" height="188" fill="white" transform="translate(714 1024)"></rect>
      </clipPath>
      <clipPath id="clip3_1_7939">
        <rect width="184.063" height="185" fill="white" transform="translate(255.227 900)"></rect>
      </clipPath>
    </defs>
  </svg>